<?xml version="1.0" standalone="no"?><!DOCTYPE svg PUBLIC "-//W3C//DTD SVG 1.1//EN" "http://www.w3.org/Graphics/SVG/1.1/DTD/svg11.dtd"><svg t="1510394603258" class="icon" style="" viewBox="0 0 1024 1024" version="1.1" xmlns="http://www.w3.org/2000/svg" p-id="1880" xmlns:xlink="http://www.w3.org/1999/xlink" width="64" height="64"><defs><style type="text/css"></style></defs><path d="M896 192.5H128c-35.2 0-64 28.8-64 64v512c0 35.2 28.8 64 64 64h768c35.2 0 64-28.8 64-64v-512c0-35.2-28.8-64-64-64z m-784 560V296.8l255.7 178.9-255.6 278.8c-0.1-0.7-0.1-1.3-0.1-2z m295.3-249.1l91.5 64.1c0.2 0.1 0.4 0.3 0.6 0.4 3.8 2.5 8.1 3.8 12.3 3.9H513.3c4.3-0.1 8.6-1.4 12.3-3.9 0.2-0.1 0.4-0.2 0.6-0.4L617 504l257.1 280.6H149.7l257.6-281.2z m249.6-27.2L912 297.8v454.7c0 0.6 0 1.3-0.1 1.9l-255-278.2zM144 240.5h736c7.6 0 14.5 2.7 20 7.1L512.7 518.5 124.7 247c5.4-4.1 12.1-6.5 19.3-6.5z" p-id="1881" fill="#d81e06"></path></svg>