<?xml version="1.0" standalone="no"?><!DOCTYPE svg PUBLIC "-//W3C//DTD SVG 1.1//EN" "http://www.w3.org/Graphics/SVG/1.1/DTD/svg11.dtd"><svg t="1510388772139" class="icon" style="" viewBox="0 0 1024 1024" version="1.1" xmlns="http://www.w3.org/2000/svg" p-id="3391" xmlns:xlink="http://www.w3.org/1999/xlink" width="120" height="120"><defs><style type="text/css"></style></defs><path d="M470.429 204.864h-120.429v385.763c0 95.452-27.146 122.105-74.388 122.105-22.136 0-42.070-4.575-57.578-11.004l-12.55 112.929c22.129 9.188 56.087 14.695 82.657 14.695 108.457 0 182.29-61.485 182.29-237.775v-386.712zM686.090 205.465c-113.718 0-185.699 77.913-185.699 180.891 0 88.687 55.434 144.214 136.034 180.026 58.296 25.070 81.34 47.473 81.34 84.18 0 40.297-26.637 66.277-77.017 66.277-46.788 0-89.259-18.846-118.049-37.643v-0.035l-22.308 111.951c27.371 18.836 78.473 37.638 133.868 37.638 133.166-0.006 195.053-85.977 195.053-187.168 0-85.972-39.584-141.487-125.221-180.91-63.345-30.439-89.967-47.447-89.967-85.957 0-30.457 23.036-58.203 70.544-58.203 46.761 0 78.921 18.963 97.657 30.617l28.079-113.328c-29.369-15.548-68.919-28.333-124.315-28.333v0 0zM686.090 205.465z" fill="#1296db" p-id="3392"></path></svg>