<?xml version="1.0" standalone="no"?><!DOCTYPE svg PUBLIC "-//W3C//DTD SVG 1.1//EN" "http://www.w3.org/Graphics/SVG/1.1/DTD/svg11.dtd"><svg t="1510394620085" class="icon" style="" viewBox="0 0 1024 1024" version="1.1" xmlns="http://www.w3.org/2000/svg" p-id="2810" xmlns:xlink="http://www.w3.org/1999/xlink" width="64" height="64"><defs><style type="text/css"></style></defs><path d="M798.72 18.773333H237.226667c-37.546667 0-68.266667 30.72-68.266667 68.266667V938.666667c0 37.546667 30.72 68.266667 68.266667 68.266666h561.493333c37.546667 0 68.266667-30.72 68.266667-68.266666V87.04c0-37.546667-30.72-68.266667-68.266667-68.266667z m0 68.266667v674.133333H237.226667V87.04h561.493333zM237.226667 938.666667v-109.226667h561.493333V938.666667H237.226667z" p-id="2811" fill="#2c2c2c"></path><path d="M435.2 189.44h163.84c18.773333 0 34.133333-15.36 34.133333-34.133333s-15.36-34.133333-34.133333-34.133334h-163.84c-18.773333 0-34.133333 15.36-34.133333 34.133334s15.36 34.133333 34.133333 34.133333zM547.84 851.626667h-59.733333c-18.773333 0-34.133333 15.36-34.133334 34.133333s15.36 34.133333 34.133334 34.133333h59.733333c18.773333 0 34.133333-15.36 34.133333-34.133333s-15.36-34.133333-34.133333-34.133333z" p-id="2812" fill="#2c2c2c"></path></svg>