<?xml version="1.0" standalone="no"?><!DOCTYPE svg PUBLIC "-//W3C//DTD SVG 1.1//EN" "http://www.w3.org/Graphics/SVG/1.1/DTD/svg11.dtd"><svg t="1510388817782" class="icon" style="" viewBox="0 0 1024 1024" version="1.1" xmlns="http://www.w3.org/2000/svg" p-id="4774" xmlns:xlink="http://www.w3.org/1999/xlink" width="120" height="120"><defs><style type="text/css"></style></defs><path d="M829.723272 690.652889 695.935196 690.652889l0-345.92866 123.922381-127.60833-13.229303 0L686.944428 340.624864 349.999372 340.624864 349.999372 200.841238l-10.233062 0 0 139.782603L206.123544 340.623841l0 10.233062 133.642766 0 0 339.791893 7.987928 0-0.00307 0.00307-7.836479 0 0 10.233062 345.787444 0 0 129.694851 10.233062 0L695.935196 700.885951l133.788076 0L829.723272 690.652889zM349.999372 350.857926l327.028195 0-327.028195 337.476151L349.999372 350.857926zM359.999121 690.652889l325.703013-335.390653L685.702134 690.652889 359.999121 690.652889z" p-id="4775" fill="#d81e06"></path></svg>