<?xml version="1.0" standalone="no"?><!DOCTYPE svg PUBLIC "-//W3C//DTD SVG 1.1//EN" "http://www.w3.org/Graphics/SVG/1.1/DTD/svg11.dtd"><svg t="1510394667372" class="icon" style="" viewBox="0 0 1027 1024" version="1.1" xmlns="http://www.w3.org/2000/svg" p-id="3252" xmlns:xlink="http://www.w3.org/1999/xlink" width="64.1875" height="64"><defs><style type="text/css"></style></defs><path d="M552.344018 65.80479L543.5237 120.886774c-1.980071 13.140473 9.180331 24.120869 28.801038 27.180979a27.360985 27.360985 0 0 0 34.741251-23.220837l5.940214-37.261342c1.620058-10.800389 6.66024-16.38059 12.78046-18.000648 1.980071 0 3.960143 0 4.140149-1.260045s0-1.440052-1.620058-1.620059L615.526294 65.264771l-13.32048-2.340085c-1.440052 0-1.800065 0-1.980072 1.080039s1.620058 1.620058 3.420124 2.520091c5.580201 2.880104 8.640311 9.540344 6.840246 20.340733l-5.940214 38.161374A21.600778 21.600778 0 0 1 578.264952 145.727668 18.000648 18.000648 0 0 1 561.524349 123.766878l8.640311-55.081984c1.620058-10.080363 11.700421-3.420123 12.240441-7.020253s0-1.800065-2.160078-1.980071l-18.000648-2.520091-18.000649-3.06011C543.5237 53.924362 543.5237 54.464382 543.5237 55.724427s10.440376 0 8.820318 10.080363zM621.466507 152.927928s0 1.440052 1.080039 1.980071l13.32048 5.580201 13.140473 6.120221h2.160078c0.360013 0-2.700097-2.160078-5.220188-5.040182s-4.860175-8.460305 0-18.000648l20.880752-47.341705 22.500811 87.843163c0 1.800065 0 3.60013 1.620058 4.140149s1.800065-1.080039 2.700097-3.420123l26.460953-59.942159c4.140149-9.360337 9.540344-11.520415 13.680493-11.520414s6.480233 2.520091 7.200259 0 0-1.440052-1.080039-1.980072l-13.320479-5.580201-13.140474-6.12022h-2.160077c-0.360013 0 2.700097 2.160078 5.400194 5.040181s4.860175 8.640311 0 18.000649l-15.300551 34.381238-18.000648-70.742548-13.8605-5.040181-12.420447-5.760208h-1.980071c-0.360013 0 0 1.620058 1.980071 2.700097a15.840571 15.840571 0 0 1 7.560272 12.420448L642.527266 141.947532c-4.140149 9.360337-9.540344 11.520415-13.680493 11.520415s-6.480233-2.520091-7.380266-0.540019zM766.011713 143.027571l-38.341381 54.001945c-5.940214 8.280298-11.880428-2.160078-14.040505 0s0 1.620058 1.080039 2.880104l14.580525 10.080363 14.220512 10.440376c1.620058 1.260045 2.520091 0.900032 3.06011 0s-9.72035-5.220188-3.780136-13.500486l38.341381-54.001945c5.940214-8.280298 11.880428 2.160078 14.040506 0s0-1.620058-1.080039-2.880104l-14.580525-10.080363-14.220513-10.440376c-1.620058-1.260045-2.520091-0.900032-3.06011 0s9.72035 5.220188 3.780136 13.500486zM814.973477 181.728965l-32.941187 73.442645c0 1.440052-1.260045 2.880104 0 3.420123s1.980071 0 3.60013 0l67.862444-26.10094c18.000648-7.200259 21.420771 3.60013 24.120869 1.080039s0-2.160078-1.620058-4.140149l-9.000325-9.000324-8.640311-9.540344c-0.900032-1.080039-1.980071-1.080039-2.520091 0s7.380266 8.100292-1.440051 16.560597a23.760856 23.760856 0 0 1-7.20026 4.500162l-41.221484 16.020577 23.220836-49.501783a12.960467 12.960467 0 0 1 2.700097-3.960143c4.860175-4.680169 8.640311 4.140149 10.620383 2.340085s0-1.440052-1.080039-3.240117l-12.060435-12.420447-12.24044-13.32048h-2.160078c-0.540019 0 4.680169 3.06011 0 13.860499zM883.015927 258.77174l-56.702042 33.841219c-8.820318 5.220188-10.080363-6.66024-13.140473-4.860175s-1.080039 1.260045 0 3.06011l9.360337 15.120544c9.000324 15.120545 18.000648 29.881076 26.10094 44.281595l27.180979-9.72035 3.420123-1.440052a1.260045 1.260045 0 0 0 0-1.800065c0-0.900032-1.620058 0-4.140149 0a36.001297 36.001297 0 0 1-40.681465-15.84057c-4.140149-7.020253-2.700097-10.620382 2.340084-13.500486l27.540992-16.38059 1.620058 2.700097a15.840571 15.840571 0 0 1-6.660239 22.50081c-2.160078 1.440052-2.520091 2.160078-1.800065 3.240117s1.260045 0 2.160078 0l33.481205-19.98072c0.900032 0 1.260045-1.440052 0-1.980071s-1.440052-1.080039-3.600129 0a15.840571 15.840571 0 0 1-21.780785-5.580201L867.53537 289.732855l31.501134-18.000648 3.60013 5.940214a30.421096 30.421096 0 0 1 2.160078 33.121192c-4.500162 8.460305-6.480233 9.540344-5.940214 10.440376s0.900032 0.900032 1.440052 0l2.52009-2.340084 18.000649-18.000648c-7.740279-12.78046-15.660564-25.560921-23.760856-39.241413-2.700097-4.320156-5.580201-9.72035-8.820318-15.300552-1.080039-1.800065-1.800065-1.800065-2.700097-1.260045s6.300227 8.640311-2.520091 13.680493zM859.075065 367.315649c-0.900032 0-1.440052 0.900032 0 2.880104 1.800065 6.300227 3.780136 12.060434 5.220188 16.920609s2.880104 10.800389 4.680169 17.100616c0 1.980071 1.260045 2.340084 2.340084 1.980071s-4.500162-10.080363 5.400194-12.960466l29.341057-8.640312a16.38059 16.38059 0 0 1-3.600129 18.000649l-27.360986 23.940862 3.960143 13.140473c1.260045 4.320156 2.340084 8.820318 3.600129 13.32048 0 1.080039 0.900032 1.080039 1.620059 0s-3.60013-7.740279 4.500162-15.480558l14.940538-14.400518a24.840895 24.840895 0 0 0 5.040181-28.621031c10.080363 24.300875 20.520739 28.261018 30.781109 25.200908s18.000648-18.000648 12.240441-38.341381c-2.340084-8.100292-4.140149-13.32048-5.940214-19.4407s-2.880104-10.800389-4.680169-17.100616C940.978015 343.7348 939.537963 343.7348 939.537963 343.7348s4.500162 10.080363-5.400194 12.960467l-63.182276 18.000648c-10.080363 3.60013-8.460305-8.280298-11.880428-7.380266z m87.123138 5.040182l2.340084 7.740278c3.06011 10.440376 0 18.000648-14.040505 22.500811a18.000648 18.000648 0 0 1-25.560921-14.040506l-1.440052-4.680168zM967.978987 508.980751A82.442969 82.442969 0 0 0 971.93913 487.739986a27.000972 27.000972 0 0 0-27.540992-27.180979c-31.501135 1.620058-16.560596 51.841867-42.121517 53.101913-9.72035 0-16.740603-6.66024-18.000648-19.620707 0-18.000648 14.940538-25.740927 30.961115-29.521063 2.700097 0 4.500162 0 4.500162-1.980071s0-1.260045-1.980071-1.260046l-36.001297 1.620059s-1.080039 0-1.080039 1.080038 4.320156 1.260045 4.680169 6.120221-5.400194 11.160402-4.680169 23.760856a31.141122 31.141122 0 0 0 31.501135 32.041154c34.381238-1.620058 20.340733-52.7419 41.221484-54.001945 9.72035 0 14.040506 6.480233 14.400519 15.480557 0 14.220512-7.380266 21.420771-21.240765 27.720999-5.040182 2.340084-7.560272 2.520091-7.560272 3.780136s0 1.080039 1.260045 0.900032h4.140149l23.940862-3.420123c1.980071 0 2.340084 0 2.160078-1.620058s-2.340084-1.260045-2.520091-5.760208zM967.798981 552.362314c-3.60013 0 0 10.980395-10.26037 9.72035l-65.342353-8.820318c-10.080363-1.440052-3.780136-11.520415-7.200259-12.060434s-1.620058 0-1.980072 2.340084c0 6.480233-1.440052 12.600454-2.160077 18.000648s-1.800065 10.980395-2.700098 18.000649c0 1.980071 0 2.700097 1.260046 2.700097s0-10.980395 10.260369-9.72035l65.342354 8.820317c10.080363 1.440052 3.780136 11.520415 7.200259 12.060435s1.620058 0 1.980071-2.340084c0-6.480233 1.440052-12.600454 2.160078-18.000649s1.800065-11.160402 2.520091-18.000648c0.540019-1.980071 0-2.520091-1.080039-2.700097zM957.538611 623.644881l-20.700745-11.340408-4.140149-2.160078a1.080039 1.080039 0 0 0-1.620059 0 47.161699 47.161699 0 0 1 15.660564 36.001296l-66.602398-21.600778c-7.740279-2.520091-8.100292-6.840246-6.120221-12.78046v-2.700097c0-0.360013-1.620058 0-1.980071 1.440052-2.340084 6.840246-4.140149 13.140473-6.120221 18.000648s-4.140149 11.700421-6.480233 18.000648v2.340085c0 0.360013 1.800065 0 2.340084-1.620059 1.980071-5.940214 4.860175-9.000324 12.600454-6.480233l66.782405 22.50081c-14.580525 21.780784-33.481206 16.560596-34.561244 19.4407a1.080039 1.080039 0 0 0 0 1.440052h4.500162l23.400843 3.420123h2.700097a2.880104 2.880104 0 0 0 0-1.980071 5.400194 5.400194 0 0 1 0-3.60013l18.000648-54.001944a5.400194 5.400194 0 0 1 2.160078-2.700098s1.260045 0 1.440052-1.440052 0.540019 0.720026-1.260046-0.180006zM908.576848 721.748414l-42.48153-2.340084-24.120869-15.660564c-8.640311-5.400194 1.440052-12.060434-1.620058-13.860499s-1.620058 0-2.700097 1.260045c-3.420123 5.580201-6.480233 10.800389-9.180331 15.120545s-6.12022 9.360337-9.540344 14.940538c-1.080039 1.800065 0 2.520091 0 3.06011s4.680169-10.080363 13.32048-4.680169l26.10094 16.200584 13.32048 26.10094c10.800389 21.060759 4.680169 24.300875 6.840246 25.560921a1.260045 1.260045 0 0 0 1.800065 0l6.120221-10.080364c2.700097-4.320156 4.500162-6.840246 6.660239-10.260369s0-2.520091 0-2.880104-4.860175 6.300227-12.060434 1.800065a33.301199 33.301199 0 0 1-10.260369-11.880428l-9.720351-18.000648 31.861148 2.160078a14.940538 14.940538 0 0 1 7.200259 1.800064c6.12022 3.780136 0 9.000324 1.440052 10.440377s1.620058 0 2.520091-1.620059c3.240117-5.040182 6.12022-10.26037 9.180331-15.300551l9.72035-15.120544v-2.520091c0-0.360013-3.06011 5.760207-14.400519 5.760207zM215.911901 739.749063c-2.700097-4.140149-1.260045-12.420447-8.280298-22.860824a31.141122 31.141122 0 0 0-43.561569-11.160402c-28.621031 19.080687 9.72035 55.622003-7.740279 67.322425-8.100292 5.400194-15.300551 1.620058-20.340732-5.940214-7.920285-11.700421-4.680169-22.140797 3.960142-34.561245 3.06011-4.500162 5.220188-6.12022 4.500162-7.200259s0 0-1.620058 0l-3.240117 2.700097-18.000648 15.300551c-1.620058 1.080039-1.620058 1.800065-1.080039 2.520091s3.240117-1.620058 5.580201 1.980071a82.262963 82.262963 0 0 0 7.920285 21.060759 27.000972 27.000972 0 0 0 37.621355 9.18033c26.280947-18.000648-12.600454-52.921906 8.820318-67.142418 8.100292-5.400194 18.000648-3.06011 25.020901 7.740279 10.26037 15.480558 0 29.70107-11.340408 41.221485-1.980071 1.980071-3.60013 2.880104-2.880104 3.960142s1.080039 0 2.340084 0l29.341057-19.620706v-1.440052c0-0.540019-3.420123 0.180006-7.020253-3.06011zM176.490481 674.226703c0.900032 0 1.440052-1.080039 0-2.880104-2.160078-6.12022-4.320156-11.880428-5.940214-16.740603s-3.420123-10.620382-5.400194-16.920609c0-1.980071-1.440052-2.160078-2.340084-1.800065s4.860175 9.900357-4.860175 13.140473l-31.861148 10.620383-9.900356-31.501135L147.509438 617.344654c9.72035-3.240117 8.460305 8.640311 11.880428 7.560272s1.440052-1.080039 0-2.880103c-2.160078-6.12022-4.320156-11.880428-5.940214-16.740603s-3.240117-10.620382-5.400195-16.92061c0-1.980071-1.440052-2.160078-2.340084-1.800065s4.860175 9.900357-4.860175 13.140474l-61.202204 21.060758c-9.72035 3.240117-8.460305-8.640311-11.880428-7.560272s-1.440052 1.080039 0 2.880104c1.980071 6.12022 4.320156 11.880428 5.940214 16.740603s3.240117 10.800389 5.400194 16.920609c0 1.980071 1.440052 2.160078 2.340084 1.800065s-4.860175-9.900357 4.860175-13.140473l27.720999-9.360338 10.620382 31.681141-27.720998 9.360338c-9.72035 3.240117-8.460305-8.640311-11.880428-7.560273s-1.440052 1.080039 0 2.880104c2.160078 6.12022 4.320156 11.880428 5.940214 16.740603s3.240117 10.620382 5.400194 16.920609c0 1.980071 1.440052 2.160078 2.340085 1.980072s-4.860175-9.900357 4.860175-13.140474L165.510086 666.66643c8.820318-3.240117 7.560272 8.640311 10.980395 7.560273zM135.449003 559.742579c10.26037 0 5.760207 10.620382 9.360337 10.440376s1.620058 0 1.440052-2.700097c0-6.480233 0-12.600454-1.080039-18.000648 0-18.000648-1.620058-34.561245-2.160077-51.301848l-28.441025-4.140149L111.508141 493.140181a1.260045 1.260045 0 0 0-1.260045 1.260045c0 1.080039 1.260045 1.260045 3.600129 1.800065a36.001297 36.001297 0 0 1 28.441025 33.121193c0 8.100292-2.520091 10.620382-8.460305 10.800389L100.887759 541.741931v-3.240117c0-8.820318 5.220188-15.660564 16.560596-16.740602 2.520091 0 3.06011 0 3.06011-1.980072s0-1.260045-1.800065-1.260045l-38.8814 1.800065c-1.080039 0-1.800065 0-1.800065 1.440052s0 1.620058 3.240117 1.620058a15.840571 15.840571 0 0 1 16.560596 15.120544V541.741931l-36.001296 1.800065v-6.840246A30.421096 30.421096 0 0 1 75.506844 506.820673c8.100292-5.400194 10.26037-5.400194 10.080363-6.480233s0-1.260045-1.080038-1.260045l-3.240117 0.900032-23.940862 7.560272c0 14.940538 1.800065 30.061083 2.52009 45.721647v18.000648c0 1.980071 0 2.520091 1.800065 2.520091s-1.980071-10.800389 8.280298-11.340408zM59.126254 459.658975c1.440052 0 1.620058 0 2.160078-2.520091a15.840571 15.840571 0 0 1 10.620383-9.72035l54.001945 11.880428c9.900357 2.160078 13.140473 7.020253 14.040505 11.160402s-1.260045 6.840246 0 7.200259 1.440052 0 1.800065-1.440052c0.900032-4.140149 1.800065-9.180331 2.880104-14.220512s2.880104-10.26037 4.680168-14.220512c0-1.440052 0-1.800065-0.900032-1.980071s-1.620058 3.06011-3.780136 6.12022-7.380266 6.480233-18.000648 4.320156l-50.401816-10.980396 82.082957-39.781432c1.800065 0 3.420123-1.260045 3.600129-2.520091s-1.440052-1.440052-3.780136-1.980072L93.507493 386.936356c-9.900357-2.160078-13.140473-7.020253-14.040506-11.160402s1.260045-6.840246 0-7.20026-1.440052 0-1.800065 1.440052c-0.900032 4.140149-1.800065 9.180331-2.880104 14.220513s-2.340084 9.900357-3.420123 14.040505c0 1.440052 0 1.800065 0.900033 1.980072s1.440052-2.520091 3.240116-5.940214 7.380266-6.480233 18.000649-4.320156L129.508789 397.736745l-65.162347 32.76118-3.06011 13.860499c-1.080039 4.680169-2.160078 9.180331-3.240116 13.32048-0.540019 1.080039-0.540019 1.800065 1.080038 1.980071zM111.508141 358.315325a0.900032 0.900032 0 0 0 1.440052 0c0-1.440052-1.080039-1.260045-6.840246-9.900357a31.321128 31.321128 0 0 1-1.260046-32.941186l3.60013-7.740279 51.841867 76.862768c1.080039 1.440052 1.620058 2.340084 2.160078 2.520091s1.260045 0 1.620058 0c4.500162-9.360337 8.640311-19.080687 13.140473-28.441024s9.000324-18.000648 13.500487-28.081011l-22.140798-16.200584-4.140149-2.880104a1.260045 1.260045 0 0 0-1.800065 0c-0.900032 1.980071 6.12022 5.040182 10.980396 13.500487a33.301199 33.301199 0 0 1 0.900032 32.401167l-4.500162 9.360337-51.661861-75.602723a14.400519 14.400519 0 0 0-2.700097-3.420123s-1.080039 0-1.800065 1.440051c-4.140149 8.820318-7.740279 18.000648-11.880428 25.740928s-8.100292 16.920609-12.060434 25.200907l19.260694 16.020577zM143.549295 260.571805l51.481854 41.221484c7.920285 6.300227-2.700097 11.880428 0 14.040506s1.620058 0 2.880104-0.900032l10.800389-14.040506 11.340408-13.680493c1.260045-1.620058 1.080039-2.340084 0-3.06011s-5.760207 9.360337-13.680492 3.06011L180.450624 266.332012 201.511383 240.231072l26.280946 21.060759c7.920285 6.300227-2.700097 11.880428 0 14.040505s1.620058 0 2.880104-0.900032l10.800389-14.040506 11.340408-13.680493c1.260045-1.620058 1.080039-2.340084 0-3.06011s-5.760207 9.360337-13.680493 3.06011l-51.481854-41.221484c-7.920285-6.300227 2.700097-11.880428 0-14.040506s-1.620058 0-2.880103 0.900033l-10.800389 14.040505-11.340409 13.680493c-1.260045 1.620058-1.080039 2.340084 0 3.06011s5.760207-9.360337 13.680493-3.06011l22.860823 18.000648-21.240765 26.280947-22.860823-18.000649c-7.920285-6.300227 2.700097-11.880428 0-14.040505s-1.620058 0-2.880104 0.900032l-10.800389 14.040506-11.880428 13.32048c-1.260045 1.620058-1.080039 2.340084 0 3.06011s6.12022-9.900357 14.040506-3.06011zM231.392459 165.348375l38.341381 54.001945c5.940214 8.280298-5.940214 10.620382-3.780137 13.500486s1.440052 1.080039 3.060111 0l14.220512-10.440376 41.94151-29.701069-11.880427-26.280947a28.801037 28.801037 0 0 0-1.800065-3.240117 1.260045 1.260045 0 0 0-1.800065 0C309.515272 163.728317 309.515272 163.728317 309.515272 166.248408a36.001297 36.001297 0 0 1-12.420447 41.761504c-6.66024 4.680169-10.26037 3.60013-13.680493-1.080039l-18.000648-26.10094 2.520091-1.800065a15.840571 15.840571 0 0 1 23.04083 4.860175c1.620058 1.980071 2.340084 2.340084 3.240116 1.620058s0-1.260045 0-2.160078L271.713911 151.487876c0-0.900032-1.440052-1.080039-2.160078 0s-0.900032 1.440052 0 3.60013a15.840571 15.840571 0 0 1-3.780136 22.140797l-2.520091 1.800065-20.880752-30.421096 5.580201-3.960142a30.421096 30.421096 0 0 1 32.76118-4.860175c8.820318 3.780136 10.080363 5.580201 10.980396 5.040181s0-1.080039 0-1.620058l-2.520091-2.160078-19.260694-16.020577-36.721322 26.640959-14.580526 10.080363c-1.620058 1.260045-1.620058 1.980071-1.080038 2.880104s8.100292-7.560272 13.860499 0.720026zM312.755389 102.886126a15.840571 15.840571 0 0 1 14.040506 3.600129l19.620706 52.021874c3.60013 9.540344 1.260045 14.940538-1.800064 18.000648s-6.300227 2.700097-5.580201 4.680169 0 1.260045 2.160077 0l13.500487-5.400195 13.680492-4.860175c1.440052 0 1.440052-1.260045 1.260046-1.980071s-3.420123 0-7.380266 0-9.360337-2.700097-12.960467-12.240441L331.11605 109.726372l77.582795 46.981692c1.620058 1.080039 3.06011 2.160078 4.140149 1.800065s0-1.980071 0-4.320156L389.438151 91.725724c-3.60013-9.540344-1.260045-14.940538 1.800065-18.000649s6.300227-2.700097 5.580201-4.680168 0-1.260045-2.160078 0L381.517866 73.725075l-13.680493 4.860175c-1.440052 0-1.440052 1.260045-1.080039 1.980072s3.420123 0 7.200259 0 9.540344 2.700097 12.960467 12.24044L399.518514 127.72702l-62.822263-36.001296-13.320479 5.040181-12.960467 4.680169c-0.900032 0-1.260045 0-0.900033 1.800064s1.260045 0.180006 3.240117-0.360012z" fill="#980042" p-id="3253"></path><path d="M286.474443 864.133542m-11.880428 0a11.880428 11.880428 0 1 0 23.760855 0 11.880428 11.880428 0 1 0-23.760855 0Z" fill="#980042" p-id="3254"></path><path d="M740.09078 864.133542m-11.880428 0a11.880428 11.880428 0 1 0 23.760856 0 11.880428 11.880428 0 1 0-23.760856 0Z" fill="#980042" p-id="3255"></path><path d="M375.397645 863.23351c-10.800389-2.160078-12.960467-3.780136-13.500486-1.980071s0 1.440052 1.260045 1.980071l16.38059 5.580201c2.160078 0 2.700097 1.620058 1.800065 4.320155l-18.000648 56.34203c-1.620058 5.040182-5.760207 6.66024-12.78046 4.680168s-7.920285-2.340084-8.640312 0 0 1.620058 1.440052 2.160078l24.840895 8.100292 24.300875 8.100291h2.340084c0.180006 0 0-2.340084-7.200259-4.860175s-9.000324-6.300227-7.380266-11.520414L402.578624 865.753601v-3.240117a76.862768 76.862768 0 0 1-27.180979 0.720026zM468.460997 876.55399c-21.420771-2.340084-33.841219 8.100292-36.001297 23.400842a26.460953 26.460953 0 0 0 26.820966 28.981044 30.061083 30.061083 0 0 0 18.000649-3.420123 58.322101 58.322101 0 0 1-37.441349 36.001297v1.080039c5.760207 0 54.001945-8.280298 57.242062-45.001621a34.021225 34.021225 0 0 0-28.621031-41.041478z m12.600454 33.301199a41.041478 41.041478 0 0 1-2.520091 11.160402 18.000648 18.000648 0 0 1-14.940538 5.220188c-8.280298 0-15.120545-7.920285-13.140473-25.200908s9.900357-23.04083 18.000648-22.320804 15.120545 8.100292 12.600454 30.961116zM570.704679 914.535358a21.060759 21.060759 0 0 0-18.000648-37.261342 27.901005 27.901005 0 0 0-28.621031 27.180979 23.04083 23.04083 0 0 0 12.060435 18.000648 25.200908 25.200908 0 0 0-12.240441 22.320804 26.460953 26.460953 0 0 0 31.681141 21.060758c20.880752-1.800065 34.201232-14.760532 32.941186-29.341057a23.400843 23.400843 0 0 0-17.820642-21.96079z m-18.000648-34.921258a18.000648 18.000648 0 0 1 20.160726 18.000648 19.620707 19.620707 0 0 1-3.960143 15.840571c-9.180331-2.160078-28.801037-5.040182-29.881076-18.000649a14.220512 14.220512 0 0 1 13.32048-15.84057z m2.340084 83.883021a20.880752 20.880752 0 0 1-23.220836-21.420772 18.000648 18.000648 0 0 1 7.020253-18.000648 124.924499 124.924499 0 0 1 16.020577 4.500162c14.040506 3.780136 18.000648 9.180331 18.000648 16.020577a18.000648 18.000648 0 0 1-18.000648 18.900681zM653.507661 890.774502a18.000648 18.000648 0 0 0 2.160078-15.300551 22.50081 22.50081 0 0 0-30.061082-12.600454 27.180979 27.180979 0 0 0-19.620707 25.200908 1.080039 1.080039 0 0 0 1.260045 0c2.340084 0 0-10.800389 13.680493-14.940539a14.580525 14.580525 0 0 1 20.340733 9.180331 16.38059 16.38059 0 0 1-1.980072 16.38059c-5.040182 5.040182-10.620382 3.780136-9.900356 6.480233s5.220188-1.080039 10.440376-1.080038a20.700746 20.700746 0 0 1 19.260693 15.84057 18.000648 18.000648 0 0 1-10.800389 25.200908c-5.760207 1.800065-11.340408 0-14.400518-8.280299s-6.66024-10.980395-12.78046-9.000324a9.180331 9.180331 0 0 0-5.580201 11.700422c2.700097 8.640311 16.38059 13.140473 33.661212 7.740278a33.301199 33.301199 0 0 0 24.480882-39.601426 27.901005 27.901005 0 0 0-20.160727-16.920609z" fill="#980042" p-id="3256"></path><path d="M983.819558 313.313704a511.938438 511.938438 0 1 0 40.141446 198.007132 508.698321 508.698321 0 0 0-40.141446-198.007132zM513.822631 1004.358593A492.317731 492.317731 0 1 1 1006.140362 512.040861 492.857751 492.857751 0 0 1 513.822631 1004.358593z" fill="#980042" p-id="3257"></path><path d="M425.79946 555.422424a5.580201 5.580201 0 0 0 3.60013 0 12.960467 12.960467 0 0 0 6.66024-2.700097s1.440052 0 1.440052-0.900033-5.220188-3.60013-7.920285-3.600129a12.420447 12.420447 0 0 0-8.100292 3.420123c0.180006 1.980071 3.420123 3.420123 4.320155 3.780136zM456.400563 618.604699c1.440052-7.560272-1.080039-5.580201-16.92061-6.12022h-39.42142a4.140149 4.140149 0 0 0-3.600129 4.680169c0 5.400194-1.440052 4.860175 25.56092 4.860175h10.440376c16.920609-1.080039 21.060759 0.900032 23.940863-3.420124z" fill="#980042" p-id="3258"></path><path d="M823.973801 617.884674a23.760856 23.760856 0 0 0-7.380266-18.000649l-80.822911-80.822911a23.760856 23.760856 0 0 1-7.020253-16.920609v-16.92061a23.760856 23.760856 0 0 0 7.380266 18.000649l80.822911 80.822911a23.760856 23.760856 0 0 1 7.020253 16.920609v-91.443293a23.760856 23.760856 0 0 0-7.380266-18.000649l-80.822911-80.82291a23.760856 23.760856 0 0 1-7.020253-16.92061v-16.920609a23.760856 23.760856 0 0 0 7.380266 18.000648l80.822911 80.822911a23.760856 23.760856 0 0 1 7.020253 16.920609v-101.163643a23.940862 23.940862 0 0 0-6.120221-14.760532l-169.566107-169.566107a23.940862 23.940862 0 0 0-14.760531-6.12022h-12.420447a5.940214 5.940214 0 0 0-5.940214 5.940214v80.642904a9.000324 9.000324 0 0 1-9.000325 9.000324H597.525645v-77.582794a18.000648 18.000648 0 0 0-18.000648-18.000648h-131.404733a18.000648 18.000648 0 0 0-18.000648 18.000648v77.582794h-9.000324a9.000324 9.000324 0 0 1-8.820318-9.000324v-80.462898a5.940214 5.940214 0 0 0-5.940214-5.940214h-12.600454a23.940862 23.940862 0 0 0-14.760531 6.120221l-169.566107 169.566107a23.940862 23.940862 0 0 0-6.120221 14.760531v101.163644a23.760856 23.760856 0 0 1 7.020253-16.92061l81.182924-81.002917a23.760856 23.760856 0 0 0 7.380266-18.000648v16.920609a23.760856 23.760856 0 0 1-7.020253 16.92061l-80.822911 80.82291a23.760856 23.760856 0 0 0-7.380266 18.000649v91.443293a23.760856 23.760856 0 0 1 7.020253-16.920609L291.514624 503.220544a23.760856 23.760856 0 0 0 7.380266-18.000649v16.92061a23.760856 23.760856 0 0 1-7.020253 16.920609l-80.822911 80.822911a23.760856 23.760856 0 0 0-7.380266 18.000649V631.745173a23.940862 23.940862 0 0 0 6.120221 14.760531l23.760856 23.760856L291.514624 611.584447a23.760856 23.760856 0 0 0 7.380266-18.000649v16.92061a23.760856 23.760856 0 0 1-7.020253 16.920609l-50.221809 50.221809 136.084901 136.084901 36.001297-66.242386a18.000648 18.000648 0 0 1 16.38059-9.900356h14.220512a18.000648 18.000648 0 0 0-16.560596 10.080363l-40.321452 72.002593a19.080687 19.080687 0 0 0 5.580201 0.900032h69.842515l13.32048-73.622651a12.060434 12.060434 0 0 1 11.880428-9.900357h12.24044a12.060434 12.060434 0 0 0-11.880427 10.080363l-13.32048 73.442645h75.782729l-13.32048-73.442645a12.060434 12.060434 0 0 0-11.880427-10.080363h12.24044a12.060434 12.060434 0 0 1 11.880428 9.900357l13.32048 73.622651H633.526942a19.800713 19.800713 0 0 0 5.580201-0.900032l-40.321452-72.002593a18.000648 18.000648 0 0 0-16.560597-10.080363h14.220512a18.000648 18.000648 0 0 1 16.38059 9.900356l36.001297 66.242386 136.084901-136.084901-50.221809-50.221809a23.760856 23.760856 0 0 1-7.020253-16.920609v-16.92061a23.760856 23.760856 0 0 0 7.380266 18.000649l58.142094 58.142094 23.760856-23.760856a23.940862 23.940862 0 0 0 6.12022-14.760532zM579.524997 382.796207c2.700097-24.840895 3.240117-22.320804 18.000648-27.540992a194.226995 194.226995 0 0 1 34.021226-5.400195 141.485096 141.485096 0 0 1 45.54164 7.560273c7.560272 2.700097 4.500162 5.220188 4.860175 33.841218-1.260045 10.800389-2.160078 9.000324-13.140473 10.080363a82.622976 82.622976 0 0 1-25.740928-2.700097c-3.780136-4.680169-8.460305-30.421096-18.000648-27.180979-3.60013 2.700097 0 3.06011-6.300227 15.480558a79.202853 79.202853 0 0 1-5.760207 10.620382 62.642256 62.642256 0 0 1-26.64096 3.240117c-8.640311-0.180006-6.840246-4.860175-6.840246-18.000648zM561.524349 361.735448c0-5.220188 0-6.480233 4.320155-6.840246s6.840246 2.340084 7.380266 5.760207 0 16.560596 0 27.180979c0 6.12022 0 19.260694-4.860175 21.060759s-8.640311 1.260045-8.280298-4.860175a73.802658 73.802658 0 0 1 2.340084-14.580525A164.885938 164.885938 0 0 0 561.524349 361.735448z m3.240116 63.542289c6.300227 2.520091 6.66024 22.140797 6.66024 22.140797v25.740927a40.501459 40.501459 0 0 1 0 12.420447 8.820318 8.820318 0 0 1-7.920285 1.260046c-2.880104-1.620058-4.320156-16.920609-4.320156-21.960791a230.048285 230.048285 0 0 0-1.620058-28.261018c-0.540019-11.340408 0.720026-10.080363 7.920285-11.340408z m-23.760855-10.620383a415.634969 415.634969 0 0 0 2.52009-44.461601 72.002593 72.002593 0 0 1 1.080039-16.740603c0-2.340084 3.240117-2.700097 7.380266-3.06011s5.220188 22.140797 5.220188 22.140797c0 20.340733-6.12022 60.302172-6.12022 70.742548-1.980071 18.000648 6.12022 63.002269 1.620058 67.142418-1.440052 0-7.200259 1.620058-8.640311-1.260045a194.407002 194.407002 0 0 1-5.400195-47.521712 304.750976 304.750976 0 0 1 3.06011-46.981692z m-18.000649-26.640959c2.520091-12.240441 2.520091-26.280947 2.520091-30.061083a9.540344 9.540344 0 0 1 8.280298-1.260045c4.500162 3.240117 5.940214 43.021549-4.140149 51.121841-3.06011 0-6.66024 0-7.740279-1.800065s0.720026-8.280298 2.340085-18.000648z m-5.400194 54.001945c0-16.020577 1.620058-18.000648 4.860175-23.58085a8.820318 8.820318 0 0 1 9.540343 2.700098 298.990768 298.990768 0 0 1-2.160077 46.621679c0 12.420447 3.240117 25.200908-1.800065 27.180979s-9.000324 0-9.360337-3.420124c-0.540019-15.480558 0.180006-49.861796 0.180006-49.861795z m-14.400519 196.387073c0 21.060759-1.260045 19.080687-15.84057 19.080687H440.920005v15.300551c0 5.940214 5.220188 10.26037-28.441024 13.680493-7.920285 0-58.502107-1.260045-61.92223-7.20026s-9.900357-16.020577-5.220189-24.660888a91.08328 91.08328 0 0 0 29.341057 15.660564 118.264259 118.264259 0 0 0 42.48153 0.900032c7.200259-2.880104 7.020253-5.040182 6.66024-12.960466L381.517866 655.686035c-12.960467-1.620058-12.240441-1.440052-12.420448-7.920285s1.980071-6.480233 10.440376-5.940214a227.348188 227.348188 0 0 0 28.261018 1.440052h18.000648v-10.440376h-24.840894c-21.420771-0.900032-18.000648-3.960143-19.080687-13.680493 1.800065-18.000648 1.800065-15.120545 18.000648-16.200584s52.021874-0.900032 61.92223 0c15.480558 1.440052 13.500486 2.520091 13.140473 16.38059-1.620058 7.920285 1.260045 10.620382-14.040505 12.960467l-18.000649 1.080039v10.26037h34.561245s12.240441 0 12.240441-10.440376 1.440052-25.560921 1.440052-25.560921a10.800389 10.800389 0 0 0-10.800389-10.980395h-92.16332c-18.000648 0-18.000648 3.06011-20.340732 9.360337s-3.06011 36.001297-8.460305 36.001296c-13.860499-3.420123-10.620382-4.860175-10.440376-12.960467a260.829394 260.829394 0 0 1 4.500162-32.941186c2.880104-7.560272 4.320156-11.880428 49.501783-11.520415h81.90295c13.860499 0 18.000648 0 20.520739 14.220512a245.348836 245.348836 0 0 1-1.080039 39.241414z m-135.904895-92.343326c0 3.240117 5.400194 2.700097 16.200584 2.340084s8.820318-1.980071 9.180331 5.760208c0 2.880104 0 3.60013-5.940214 3.780136-21.600778 1.080039-19.800713 0-19.620707 5.580201s3.780136 3.420123 16.740603 2.700097c8.460305 0 9.180331-1.620058 9.72035 4.140149a18.000648 18.000648 0 0 1 0 5.940214c-6.12022 0-29.881076 2.520091-36.001297 1.800065s-6.300227 0-5.940214-12.960467a180.006483 180.006483 0 0 1 3.780137-31.681141c2.700097-5.760207 3.06011-4.680169 27.180978-5.580201 12.78046 0 11.340408 0 12.420448 7.740279 0 3.06011 0 3.780136-19.800713 5.040181-8.640311-0.900032-7.020253-1.620058-6.840247 5.040182z m36.001297-11.700422c-1.260045 0 3.06011-6.840246 5.400195-7.380265a133.204797 133.204797 0 0 1 13.680492 6.300226 63.722295 63.722295 0 0 1 6.480234 3.060111l3.420123-1.620059a72.002593 72.002593 0 0 1 18.000648-8.280298c0.900032 0 5.580201 7.740279 2.340084 9.72035a90.903274 90.903274 0 0 1-11.700421 7.20026l7.200259 3.960142c5.220188 2.520091 6.12022 3.780136 5.580201 8.820318a12.240441 12.240441 0 0 1-3.960142 3.420123c-2.700097 1.260045-5.040182 2.700097-7.920286 3.960143l6.66024 3.240116c9.540344 5.400194 9.000324 4.140149 6.120221 9.000324a8.100292 8.100292 0 0 1-11.160402 1.440052c-1.260045 0-8.640311-3.60013-15.480558-7.200259a151.025439 151.025439 0 0 1-14.400518 7.380266c-6.66024 3.06011-7.740279 3.240117-10.080363 0s-1.620058-5.580201 5.220188-9.540344a54.001945 54.001945 0 0 0 6.480233-3.600129c-2.880104-1.620058-6.300227-2.700097-9.900357-5.040182s-3.60013-1.980071-3.960142-3.780136-1.080039-5.220188 6.480233-9.180331l6.66024-3.240116a31.321128 31.321128 0 0 1-10.26037-9.000325z m97.023494 41.941511c-5.040182 1.080039-33.841219 1.800065-34.381238 1.620058s-3.06011 0-3.06011-3.780136 0-6.12022 9.900356-5.940214 16.740603 0.900032 16.740603-4.680168-1.080039-5.220188-16.38059-4.680169c-8.820318 0-8.460305 0-8.820317-1.800065-1.080039-5.400194-2.340084-8.460305 5.400194-9.000324 10.620382-0.900032 19.620707 0 20.160726-2.700097s0-6.300227-8.460304-5.760208c-18.000648 1.260045-18.000648 2.520091-18.900681-3.06011s-2.340084-7.020253 11.880428-7.920285 26.10094-1.980071 27.000972 4.500162a131.04472 131.04472 0 0 1 3.060111 32.581173c1.080039 9.900357 0.540019 9.540344-3.420124 10.26037z m-2.340084-61.022198c-4.860175 2.520091-23.220836-22.50081-36.001296-38.8814a61.022198 61.022198 0 0 0-36.001297-20.520739c-21.780784-1.260045-51.841867 37.441348-59.40214 50.761828-3.780136 5.940214-8.100292 11.700421-14.580525 8.820318s-5.760207-3.60013-2.340084-13.500487a195.847054 195.847054 0 0 1 44.821614-52.561893c12.240441-11.520415 15.300551-12.960467 19.260694-26.640959 1.980071-25.020901 1.260045-30.961115-5.940214-32.221161s-39.42142-5.400194-40.861472 14.580526c-1.080039 16.920609-1.080039 24.480882-1.080038 31.321128 0 10.080363 0 8.460305-10.800389 8.460304-6.66024 0-3.06011-34.021225-3.060111-57.062055 3.60013-14.040506 12.060434-11.340408 25.920934-12.420447a200.347216 200.347216 0 0 0 21.600778 0c11.520415 0 14.220512-5.940214 14.940538-15.120545s1.800065-10.080363 9.900357-11.340408 6.480233 4.500162 8.100291 11.700421c2.520091 11.340408-1.260045 12.240441 15.120545 12.960467s24.480882 0 30.601102 0c13.500486 1.260045 20.880752 0 21.780784 20.700746 0 18.000648 4.860175 34.021225 0 40.501458a16.38059 16.38059 0 0 1-12.960466 5.220188c-5.580201-3.06011 6.300227-41.761504-8.460305-48.241737a75.422716 75.422716 0 0 0-39.961439 0c-6.66024 3.240117-3.960143 16.920609-4.680169 26.820966s0 16.020577 15.840571 26.460953a267.66964 267.66964 0 0 1 45.54164 44.461601c9.540344 9.000324 17.460629 21.240765 3.420123 25.560921zM507.522404 296.573101h-72.002593a18.000648 18.000648 0 0 1 18.000648-18.000648h44.821614a9.000324 9.000324 0 0 1 9.000324 9.000324z m68.402463 309.791158c-2.880104 2.700097-13.140473 4.140149-15.300551 7.380265a73.442645 73.442645 0 0 0 0 28.441025c1.800065 1.980071 6.66024 0 14.040506 0s7.380266 18.000648 3.240117 18.000648-20.160726 2.520091-28.441025 3.420123a153.005511 153.005511 0 0 1-22.50081 1.620059c-7.920285 0-7.740279-4.320156-8.640311-10.26037s0-9.180331 5.760207-8.460305a19.260694 19.260694 0 0 0 16.38059-3.960142c4.140149-3.420123 1.800065-12.240441 2.340084-19.080688s1.440052-11.520415-7.020252-9.360337c-11.880428 2.880104-12.600454 4.680169-12.600454-15.660564v-19.080687c0-9.72035-1.440052-14.760532 10.800389-18.000648 5.400194-1.080039 2.520091 14.940538 2.340084 22.50081s-0.900032 14.760532 3.06011 14.760532c10.080363 0 4.320156-21.960791 5.040182-41.041478 0-12.600454-2.160078-18.000648 7.740279-20.160726s6.840246 1.980071 7.200259 12.420447 0 44.281595 3.780136 43.921582c8.460305 0 6.840246-29.521063 6.300227-34.561245 0-7.740279-1.620058-11.160402 6.300227-11.880428s6.300227 0 7.380266 6.120221a127.44459 127.44459 0 0 1 1.260045 19.620706 144.005186 144.005186 0 0 1-2.340084 18.000649 21.060759 21.060759 0 0 1-5.940214 15.300551zM613.366216 685.747118a23.580849 23.580849 0 0 1-11.880428 0c-3.960143 0-5.940214-5.220188-9.180331-15.660564-1.620058-5.580201-3.06011-11.160402-5.760207-24.300876a85.683086 85.683086 0 0 1 0-34.381238 114.12411 114.12411 0 0 1 7.920285-19.800713 132.484772 132.484772 0 0 0 7.920285-21.780784 37.801361 37.801361 0 0 0 0-20.700746 96.123462 96.123462 0 0 0-4.860175-13.140473c-2.880104-6.480233-4.860175-9.540344 2.520091-10.440376 10.620382 0 9.900357 0 14.580525 7.560272a48.781757 48.781757 0 0 1 5.400195 19.800713 63.722295 63.722295 0 0 1-7.740279 37.261342 60.482178 60.482178 0 0 0-10.26037 37.801362 199.447183 199.447183 0 0 0 7.380266 41.401491c1.260045 4.140149 7.380266 14.760532 3.960143 16.38059z m25.920933-23.58085c3.240117 11.340408 10.620382 21.060759 5.760208 22.320804a16.38059 16.38059 0 0 1-12.600454-1.980071 60.122165 60.122165 0 0 1-11.520415-28.801037 147.605316 147.605316 0 0 1-1.980071-40.141446c4.860175-21.420771 15.840571-28.081011 18.000648-45.901653a37.801361 37.801361 0 0 0-1.980071-19.98072c-2.880104-8.640311-12.960467-21.780784-1.440052-21.780784 7.200259 0 7.380266 0.900032 10.080363 3.06011a54.001945 54.001945 0 0 1 10.260369 27.720998 88.203177 88.203177 0 0 1-9.360337 37.801362 83.162995 83.162995 0 0 0-10.980395 32.22116 200.887235 200.887235 0 0 0 5.760207 34.741251z m41.221485-80.822911c-5.940214 21.780784-10.980395 19.260694-15.120545 43.561569a201.427255 201.427255 0 0 0 7.020253 37.081336c1.440052 7.020253 8.100292 21.060759 4.860175 22.140797a21.240765 21.240765 0 0 1-13.680492-2.880103c-3.960143-3.06011-7.200259-18.000648-9.000325-22.140798a86.223105 86.223105 0 0 1 1.620059-57.422068 102.783702 102.783702 0 0 0 10.260369-30.241089 80.282891 80.282891 0 0 0-4.320155-34.021225c-2.340084-5.940214-5.580201-10.440376 0-10.620383 15.840571 0 13.860499 4.860175 18.000648 15.480558a85.863092 85.863092 0 0 1 0.360013 38.341381z m-3.960143-73.622651c-8.640311 3.06011-7.920285-1.080039-8.280298-13.500486 0-7.920285 0-32.941186-10.260369-36.001297s-18.000648-4.860175-20.160727-1.800065 0 46.261666 0 46.261666c0 10.440376-4.500162 8.820318-9.000324 8.100292-8.820318-2.340084-7.920285-7.380266-7.740278-15.660564a281.890152 281.890152 0 0 0-1.260046-39.42142A16.740603 16.740603 0 0 0 597.525645 469.739338c-2.700097 16.740603-4.500162 28.081011-5.220188 31.681141s0 5.040182-2.520091 5.580201-9.360337 2.340084-10.440376 0a85.683086 85.683086 0 0 1 0.900033-26.460953 180.006483 180.006483 0 0 1 8.460305-28.801037c1.260045-6.480233 18.000648-10.800389 28.441024-14.940538 5.760207-1.620058 4.140149-10.620382 2.340084-10.800389a131.04472 131.04472 0 0 0-21.780784 1.620058c-5.040182 0-9.540344 3.960143-13.500487-4.860175-1.980071-4.320156-2.880104-8.100292 9.180331-8.820318l15.480558-1.260045s11.160402 0 11.880428-2.160078a26.280947 26.280947 0 0 1 3.240116-12.600454c0-1.440052 5.400194 0 8.100292 0 5.940214 1.620058 3.60013 1.980071 4.680169 9.360337 0 3.420123 0 4.320156 18.000648 3.780136 13.680493 0 23.760856-1.980071 23.400843 3.420124 0 2.700097 0 8.280298-1.260046 9.72035s-5.940214 1.260045-12.240441 1.440052H637.127072c-2.340084 0-1.260045 3.60013 0 6.480233s0 2.520091 8.460304 4.500162c30.061083 8.820318 29.70107 7.020253 34.381238 26.460953a174.246276 174.246276 0 0 1 2.700098 30.601102c-0.180006 6.66024 2.160078 10.440376-5.940214 13.32048z" fill="#980042" p-id="3259"></path><path d="M658.727849 385.496304h7.20026c3.780136 0 3.420123-6.480233 1.260045-14.580525-2.340084-4.860175-9.180331-4.500162-15.84057-4.320156-2.700097 0-4.680169 0-3.780136 4.680169 2.700097 15.660564 3.960143 13.140473 11.160401 14.220512zM595.72558 386.396336h5.220188c10.620382 0 9.900357-6.480233 11.160402-15.300551 0-3.60013-5.220188-2.700097-11.160402-1.620058s-5.580201 0-6.660239 4.860175-2.340084 10.980395 1.440051 12.060434z" fill="#980042" p-id="3260"></path></svg>